<?xml version="1.0" encoding="UTF-8" standalone="no"?>
<!-- Created with Inkscape (http://www.inkscape.org/) -->

<svg
   xmlns:dc="http://purl.org/dc/elements/1.1/"
   xmlns:cc="http://creativecommons.org/ns#"
   xmlns:rdf="http://www.w3.org/1999/02/22-rdf-syntax-ns#"
   xmlns:svg="http://www.w3.org/2000/svg"
   xmlns="http://www.w3.org/2000/svg"
   xmlns:xlink="http://www.w3.org/1999/xlink"
   xmlns:sodipodi="http://sodipodi.sourceforge.net/DTD/sodipodi-0.dtd"
   xmlns:inkscape="http://www.inkscape.org/namespaces/inkscape"
   width="512"
   height="512"
   viewBox="0 0 135.46666 135.46667"
   version="1.1"
   id="svg8"
   inkscape:version="0.92.2 5c3e80d, 2017-08-06"
   sodipodi:docname="antergos.svg">
  <defs
     id="defs2">
    <linearGradient
       inkscape:collect="always"
       id="linearGradient14000">
      <stop
         style="stop-color:#fffefe;stop-opacity:1"
         offset="0"
         id="stop13996" />
      <stop
         style="stop-color:#ffffff;stop-opacity:0;"
         offset="1"
         id="stop13998" />
    </linearGradient>
    <radialGradient
       inkscape:collect="always"
       xlink:href="#linearGradient14000"
       id="radialGradient14002"
       cx="383.58948"
       cy="211.92392"
       fx="383.58948"
       fy="211.92392"
       r="250.77293"
       gradientTransform="matrix(-0.15026639,1.1206761,-0.81308567,-0.10902301,601.58068,-179.84666)"
       gradientUnits="userSpaceOnUse" />
  </defs>
  <sodipodi:namedview
     id="base"
     pagecolor="#ffffff"
     bordercolor="#666666"
     borderopacity="1.0"
     inkscape:pageopacity="0.0"
     inkscape:pageshadow="2"
     inkscape:zoom="0.7"
     inkscape:cx="694.9192"
     inkscape:cy="407.77259"
     inkscape:document-units="px"
     inkscape:current-layer="layer1"
     showgrid="false"
     units="px"
     inkscape:snap-page="true"
     showguides="true"
     inkscape:guide-bbox="true"
     inkscape:window-width="1916"
     inkscape:window-height="1041"
     inkscape:window-x="0"
     inkscape:window-y="18"
     inkscape:window-maximized="0">
    <sodipodi:guide
       position="0,20.312485"
       orientation="1,0"
       id="guide14013"
       inkscape:locked="false" />
    <sodipodi:guide
       position="135.46666,32.072344"
       orientation="1,0"
       id="guide14015"
       inkscape:locked="false" />
    <sodipodi:guide
       position="59.868371,0"
       orientation="0,1"
       id="guide14017"
       inkscape:locked="false" />
  </sodipodi:namedview>
  <metadata
     id="metadata5">
    <rdf:RDF>
      <cc:Work
         rdf:about="">
        <dc:format>image/svg+xml</dc:format>
        <dc:type
           rdf:resource="http://purl.org/dc/dcmitype/StillImage" />
        <dc:title></dc:title>
      </cc:Work>
    </rdf:RDF>
  </metadata>
  <g
     inkscape:label="Layer 1"
     inkscape:groupmode="layer"
     id="layer1"
     style="display:inline"
     transform="translate(0,-161.53332)">
    <g
       id="g14011"
       transform="matrix(1.0154973,0,0,1.0379728,-30.931644,136.79787)"
       inkscape:export-xdpi="4.5"
       inkscape:export-ydpi="4.5">
      <path
         id="path3856"
         d="m 82.659923,153.85743 c -18.069219,-1.75668 -29.889987,-5.14261 -38.774478,-11.10655 -3.084984,-2.07088 -7.719436,-6.80831 -9.371063,-9.5793 -2.920944,-4.90056 -4.086815,-10.457 -3.695025,-17.61013 0.622115,-11.35823 5.829265,-25.090477 16.992438,-44.812301 16.40685,-28.985758 27.285193,-41.051345 41.233479,-45.733631 2.448869,-0.822057 3.483139,-0.946429 7.870481,-0.946429 5.969095,0 8.125525,0.46937 12.990825,2.827587 11.99111,5.812107 23.46985,19.827851 38.17394,46.611071 9.39538,17.113504 14.08073,29.289063 15.29414,39.744003 2.36706,20.39501 -10.17043,33.45479 -37.04214,38.58526 -8.97076,1.71274 -12.15515,1.95217 -27.419622,2.06167 -8.10759,0.0581 -15.421427,0.0396 -16.252975,-0.0413 z"
         style="fill:#104088;fill-opacity:1;stroke-width:0.37797621"
         inkscape:connector-curvature="0" />
      <path
         style="opacity:0.31000001;fill:#0b327e;fill-opacity:0;fill-rule:nonzero;stroke-width:0.26458335"
         d="m 84.156404,154.09295 c -21.55648,-1.50297 -36.712399,-6.6114 -45.388089,-15.29844 -5.0807,-5.08735 -7.53948,-10.39932 -8.17248,-17.65591 -1.02401,-11.73901 3.69661,-26.424337 15.11725,-47.028107 10.62812,-19.17402 18.294589,-30.43524 25.866149,-37.99464 6.14006,-6.1302 11.41733,-9.48922 18.13342,-11.54207 2.22071,-0.67878 2.71123,-0.7288 7.27603,-0.74196 4.322616,-0.0125 5.157006,0.0575 7.137916,0.59865 9.54333,2.60699 18.20074,9.59791 27.58328,22.2737 8.48494,11.46313 21.60668,34.75721 26.60397,47.22812 9.96805,24.875587 6.56285,41.002167 -10.74974,50.909397 -8.78379,5.02658 -21.89534,8.22808 -38.00772,9.28049 -4.68382,0.30593 -20.859956,0.28732 -25.399986,-0.0292 z m 18.130886,-15.85798 c 1.23311,-0.15379 2.48293,-0.43652 2.77738,-0.62828 0.66619,-0.43386 3.3277,-6.79337 5.1012,-12.18898 6.81189,-20.72418 7.29962,-42.789027 1.40243,-63.446567 -1.12336,-3.9351 -1.40732,-4.48716 -2.2455,-4.36568 -0.47921,0.0695 -0.64542,0.57053 -1.38653,4.17996 -3.09518,15.07443 -7.91658,29.27727 -14.280956,42.068747 -5.09451,10.23921 -10.57264,18.40245 -16.75128,24.96195 -1.17719,1.24975 -2.14034,2.38724 -2.14034,2.52777 0,0.5914 4.19623,2.92979 7.80521,4.34952 6.13252,2.41247 13.3226,3.33922 19.718386,2.54156 z m 30.59567,-19.63028 c 0.99187,-1.56797 3.0932,-6.07778 3.79091,-8.13594 1.34437,-3.96569 1.88784,-7.10199 2.04022,-11.773957 0.16709,-5.12276 -0.0999,-7.73297 -1.2454,-12.17565 -1.64692,-6.38742 -5.04652,-12.55573 -9.69516,-17.59112 -1.92762,-2.088 -6.05658,-5.5551 -6.61554,-5.5551 -0.61552,0 -0.40283,0.79088 1.70768,6.35 3.98217,10.48906 6.73798,21.26391 8.173,31.955287 0.33042,2.46178 0.45539,5.33987 0.465,10.70879 0.0143,8.01692 0.0732,8.28234 1.37929,6.21769 z M 62.138154,105.19598 c 6.95247,-4.56274 11.99773,-8.641067 17.52767,-14.168467 9.14755,-9.14335 16.07634,-19.36674 21.321106,-31.45915 1.28072,-2.95286 1.30956,-3.48148 0.20201,-3.70299 -1.780976,-0.3562 -2.156766,-0.19653 -5.258586,2.23434 -9.43033,7.39047 -20.97667,14.10225 -31.44892,18.28096 l -3.53538,1.41072 -0.91169,1.81037 c -1.121109,2.22623 -2.553989,6.48321 -3.122489,9.27673 -1.02081,5.01602 -1.10008,9.52255 -0.26178,14.881757 0.47087,3.0102 0.76036,3.79809 1.39551,3.79809 0.2711,0 2.112759,-1.06306 4.092549,-2.36236 z"
         id="path3826"
         inkscape:connector-curvature="0" />
      <path
         id="path3854"
         d="m 104.85602,137.75416 c 1.62555,-1.0651 5.6166,-11.64222 7.88313,-20.89192 2.23621,-9.12598 2.77057,-14.04673 2.77057,-25.51339 0,-8.844661 -0.12374,-11.183276 -0.82996,-15.686011 -0.86812,-5.535027 -2.99892,-14.552601 -4.01114,-16.975193 -0.88377,-2.115158 -1.7687,-1.71156 -2.41656,1.102143 -4.47531,19.436646 -8.491791,31.40165 -14.707396,43.812951 -5.232932,10.44912 -9.618903,16.97861 -17.296458,25.74963 -2.193285,2.50567 -2.310834,2.28536 2.528205,4.7385 6.546765,3.31888 12.02795,4.53031 19.807833,4.37784 4.145756,-0.0812 5.549286,-0.24116 6.271776,-0.71455 z"
         style="fill:#7692bb;fill-opacity:1;stroke-width:0.37797621"
         inkscape:connector-curvature="0" />
      <path
         id="path3852"
         d="m 134.32008,116.08745 c 3.54344,-6.78281 4.65812,-12.08718 4.36424,-20.767911 -0.15405,-4.550587 -0.38751,-6.370796 -1.18116,-9.209204 -2.0408,-7.298708 -6.06351,-13.912011 -11.71054,-19.252014 -2.86733,-2.711442 -4.53952,-3.834291 -5.0098,-3.364013 -0.13117,0.131172 0.95381,3.603106 2.41109,7.715417 5.65017,15.944394 8.03595,27.748549 8.03595,39.759635 0,6.7579 0.21695,8.83654 0.90065,8.62914 0.23225,-0.0705 1.21755,-1.65042 2.18957,-3.51105 z"
         style="fill:#7692bb;fill-opacity:1;stroke-width:0.37797621"
         inkscape:connector-curvature="0" />
      <path
         id="path3848"
         d="m 61.82102,105.54388 c 16.690159,-10.478412 30.486606,-26.269431 38.40351,-43.955575 1.04564,-2.335935 1.90117,-4.498588 1.90117,-4.805897 0,-0.801153 -1.41696,-1.447077 -2.550391,-1.162605 -0.532439,0.133636 -2.855328,1.652476 -5.161968,3.375202 -9.828598,7.340534 -18.862487,12.545462 -29.303678,16.883483 -3.727979,1.548871 -4.409657,1.968569 -4.966313,3.057681 -1.164585,2.278536 -2.947438,7.770177 -3.54465,10.918439 -1.221936,6.441519 -0.313682,17.747222 1.425739,17.747222 0.285253,0 1.993715,-0.92608 3.796581,-2.05795 z"
         style="fill:#7692bb;fill-opacity:1;stroke-width:0.37797621"
         inkscape:connector-curvature="0" />
      <path
         transform="scale(0.26458333)"
         inkscape:connector-curvature="0"
         id="path13984"
         d="m 318.25168,580.98096 c -36.11592,-1.1481 -85.80342,-10.96007 -115.5161,-22.81138 -26.31366,-10.49557 -44.6545,-22.78804 -60.65768,-40.65425 -13.22551,-14.76517 -19.62216,-27.63521 -23.60714,-47.49745 -1.83398,-9.14104 -1.84062,-37.89564 -0.0115,-49.64286 6.62394,-42.54036 27.96067,-93.06502 69.98169,-165.71428 31.91179,-55.17162 57.42114,-91.2986 82.15428,-116.34895 16.74767,-16.96246 30.65491,-27.34349 48.01356,-35.83963 19.91493,-9.747296 30.5083,-11.95712 53.21428,-11.100726 19.47859,0.734668 25.73821,2.262081 42.5,10.370456 27.67606,13.38805 52.22387,35.70076 80.43127,73.1079 34.25349,45.42515 81.89384,129.78733 102.95322,182.31095 35.07584,87.4817 25.05691,145.71852 -31.57894,183.55817 -29.6298,19.79633 -77.61698,34.04024 -131.4484,39.01751 -10.72466,0.9916 -95.78374,1.90083 -116.42858,1.24454 z m 62.85715,-57.7254 c 6.08928,-0.3501 12.15135,-1.02447 13.47126,-1.4986 4.37329,-1.57097 9.81562,-12.07399 18.1117,-34.95337 11.53591,-31.81433 19.91269,-67.58555 22.83222,-97.5 1.27472,-13.0613 1.27801,-79.32647 0.004,-90 -2.96992,-24.89063 -13.55383,-71.84327 -17.85534,-79.2103 -1.66495,-2.8515 -3.37562,-3.84289 -4.95715,-2.87282 -1.66187,1.01934 -3.34914,6.68424 -9.34314,31.36884 -14.52101,59.80073 -29.91352,103.18414 -51.96435,146.46026 -18.70853,36.71664 -35.04173,60.9665 -62.03147,92.09795 -6.84842,7.89935 -7.6867,9.66256 -5.67427,11.93508 2.00931,2.26901 27.12979,14.36161 35.83818,17.25191 10.03578,3.33088 23.7119,6.05195 34.19351,6.80333 11.64225,0.83456 14.67912,0.84762 27.3744,0.11772 z m 120.65613,-73.86745 c 5.84659,-8.49772 14.70635,-27.92267 17.8414,-39.11708 4.21822,-15.06222 5.81591,-35.53163 4.4559,-57.08892 -0.94153,-14.92422 -2.05662,-21.24845 -5.82473,-33.03507 -4.79147,-14.98765 -11.85512,-29.34051 -20.91162,-42.49099 -11.25297,-16.33984 -33.768,-37.99531 -39.50343,-37.99531 -0.94251,0 -1.71365,0.24991 -1.71365,0.55535 0,1.0531 5.60276,18.41082 10.56328,32.72572 14.92543,43.07135 23.06283,76.05427 26.946,109.21893 0.64399,5.5 1.5862,22.69642 2.09382,38.21428 0.87663,26.79837 1.40904,32.14286 3.20205,32.14286 0.3837,0 1.66665,-1.40839 2.85098,-3.12977 z m -271.5399,-48.22363 c 52.58147,-31.56949 101.49867,-82.04107 132.99209,-137.21803 10.91312,-19.11996 23.45109,-46.95959 22.62724,-50.24208 -0.49769,-1.98296 -4.24831,-4.04363 -7.35976,-4.04363 -2.77762,0 -8.22977,3.34434 -23.44723,14.38249 -38.01977,27.57807 -68.73457,45.28666 -106.95284,61.66356 -8.14549,3.49043 -15.99138,7.32003 -17.4353,8.51024 -3.1983,2.63631 -6.12265,8.73659 -10.50003,21.90333 -6.70643,20.17233 -8.3144,29.97423 -8.3144,50.68323 0,23.75807 3.12529,40 7.69685,40 0.71554,0 5.52756,-2.5376 10.69338,-5.63911 z"
         style="opacity:0.31000001;fill:#01307b;fill-opacity:1;fill-rule:nonzero;stroke-width:0.71428573" />
      <path
         transform="scale(0.26458333)"
         inkscape:connector-curvature="0"
         id="path13986"
         d="m 318.76844,581.00761 c -26.9822,-0.82887 -65.93132,-7.19459 -94.25096,-15.40408 -28.82774,-8.35678 -53.30521,-20.85419 -70.03476,-35.75748 -11.44304,-10.19388 -20.56813,-20.94798 -25.61292,-30.18531 -16.26808,-29.78792 -16.40171,-70.8785 -0.38962,-119.80748 10.75572,-32.86683 28.77203,-70.79107 57.21693,-120.44134 52.4615,-91.57098 89.59263,-135.43658 132.75152,-156.82864 19.58564,-9.707794 30.85196,-12.06734 53.53409,-11.211846 18.65344,0.703546 25.80674,2.385961 41.09627,9.665596 17.68321,8.41932 31.83255,18.76332 48.9243,35.76656 24.04186,23.91736 45.95849,53.67515 73.99361,100.46645 26.51017,44.24612 50.15751,90.48122 62.78046,122.74784 22.9714,58.71921 25.3924,101.75241 7.71379,137.11206 -16.22254,32.44729 -51.01326,56.24142 -102.85124,70.34222 -19.94125,5.42436 -48.68032,10.5187 -69.15719,12.25895 -11.71765,0.99583 -94.95835,1.9141 -115.71428,1.2765 z m 72.08215,-58.5208 c 5.43906,-0.82622 7.46119,-2.72401 11.5586,-10.84783 12.92389,-25.62382 27.80769,-77.92236 32.0715,-112.69253 2.54927,-20.78864 3.16922,-79.35936 1.04865,-99.07529 -2.53546,-23.5735 -12.64073,-68.6216 -17.67247,-78.78185 -2.26103,-4.56554 -4.36077,-5.45502 -6.21107,-2.63111 -0.62782,0.95818 -4.31434,14.39751 -8.19228,29.86519 -15.72649,62.72739 -28.23273,98.61697 -48.99493,140.60251 -19.49432,39.42158 -35.83106,64.1557 -64.13912,97.10779 -4.77549,5.55892 -7.62246,9.47027 -7.62246,10.47222 0,2.4335 3.18358,4.64278 15.1472,10.51158 21.01999,10.31144 36.14373,14.62829 56.77628,16.20596 8.70185,0.66539 29.82834,0.23584 36.2301,-0.73664 z m 111.72085,-74.43322 c 3.91829,-6.03314 12.38564,-23.71905 15.0976,-31.5346 5.50868,-15.87545 7.78207,-37.00448 6.50198,-60.42968 -0.89921,-16.4552 -1.49211,-20.61594 -4.42765,-31.07143 -7.98771,-28.44983 -24.55583,-54.94174 -46.92188,-75.02662 -3.66368,-3.29001 -8.13843,-6.9603 -9.94389,-8.15618 -3.72624,-2.46817 -6.60916,-2.86773 -6.60916,-0.91601 0,0.69208 3.70249,12.18315 8.22776,25.53572 17.03076,50.25206 23.70601,76.00157 28.14369,108.56309 1.9805,14.53201 2.90271,28.20911 2.9379,43.57143 0.0506,22.0724 1.26977,33.92857 3.48902,33.92857 0.33289,0 1.90998,-2.00893 3.50463,-4.46429 z M 225.05591,404.14054 c 2.7873,-1.46469 9.81969,-5.78978 15.62754,-9.61133 22.07215,-14.52339 40.35636,-29.53785 60.24028,-49.4676 24.52772,-24.58422 44.44233,-50.35089 61.03634,-78.9723 10.64128,-18.35412 25.08854,-49.79375 24.08417,-52.41112 -0.64985,-1.69348 -4.81772,-4.01171 -7.21805,-4.01478 -2.9959,-0.004 -8.11679,3.10741 -24.68928,15.0002 -41.05672,29.46327 -67.12489,44.34422 -109.40904,62.45589 -12.76048,5.46573 -15.97173,7.81539 -18.81175,13.76447 -3.00531,6.29534 -10.07902,28.22523 -11.74838,36.4223 -2.21742,10.88813 -3.09059,26.89759 -2.19932,40.32399 1.04387,15.72521 2.87967,24.99138 5.53187,27.92203 1.52459,1.68465 1.7396,1.64448 7.55562,-1.41175 z"
         style="opacity:0.31000001;fill:url(#radialGradient14002);fill-opacity:1;fill-rule:nonzero;stroke-width:0.71428573" />
    </g>
  </g>
</svg>
