<?xml version="1.0" encoding="UTF-8" standalone="no"?>
<!-- Created with Inkscape (http://www.inkscape.org/) -->
<svg
   xmlns:dc="http://purl.org/dc/elements/1.1/"
   xmlns:cc="http://creativecommons.org/ns#"
   xmlns:rdf="http://www.w3.org/1999/02/22-rdf-syntax-ns#"
   xmlns:svg="http://www.w3.org/2000/svg"
   xmlns="http://www.w3.org/2000/svg"
   xmlns:xlink="http://www.w3.org/1999/xlink"
   xmlns:sodipodi="http://sodipodi.sourceforge.net/DTD/sodipodi-0.dtd"
   xmlns:inkscape="http://www.inkscape.org/namespaces/inkscape"
   width="128"
   height="128"
   id="svg2224"
   sodipodi:version="0.32"
   inkscape:version="0.46"
   version="1.0"
   sodipodi:docbase="/mnt/DATI/Documenti/SabayonLinux/3.5 artwork/final"
   sodipodi:docname="sabayon.svg"
   inkscape:output_extension="org.inkscape.output.svg.inkscape"
   inkscape:export-filename="/home/cdb/grub/themes/icons/sabayon.png"
   inkscape:export-xdpi="61.875"
   inkscape:export-ydpi="61.875">
  <defs
     id="defs2226">
    <inkscape:perspective
       sodipodi:type="inkscape:persp3d"
       inkscape:vp_x="0 : 65 : 1"
       inkscape:vp_y="0 : 1000 : 0"
       inkscape:vp_z="477 : 65 : 1"
       inkscape:persp3d-origin="238.5 : 43.333333 : 1"
       id="perspective3078" />
    <filter
       inkscape:collect="always"
       x="-0.30570343"
       width="1.6114068"
       y="-0.30570343"
       height="1.6114068"
       id="filter26412">
      <feGaussianBlur
         inkscape:collect="always"
         stdDeviation="21.935263"
         id="feGaussianBlur26414" />
    </filter>
    <linearGradient
       id="linearGradient20867">
      <stop
         id="stop20869"
         offset="0"
         style="stop-color:#ffffff;stop-opacity:1;" />
      <stop
         id="stop20871"
         offset="1"
         style="stop-color:#ffffff;stop-opacity:1;" />
    </linearGradient>
    <linearGradient
       id="linearGradient19849">
      <stop
         style="stop-color:#5b0000;stop-opacity:1;"
         offset="0"
         id="stop19851" />
      <stop
         style="stop-color:#590000;stop-opacity:1;"
         offset="1"
         id="stop19853" />
    </linearGradient>
    <linearGradient
       id="linearGradient17872">
      <stop
         style="stop-color:#5cb6ff;stop-opacity:1;"
         offset="0"
         id="stop17874" />
      <stop
         style="stop-color:#0170ca;stop-opacity:1;"
         offset="1"
         id="stop17876" />
    </linearGradient>
    <linearGradient
       id="linearGradient13843">
      <stop
         style="stop-color:#ffa6a6;stop-opacity:0.65490198;"
         offset="0"
         id="stop13845" />
      <stop
         style="stop-color:#960000;stop-opacity:0;"
         offset="1"
         id="stop13847" />
    </linearGradient>
    <linearGradient
       id="linearGradient10751">
      <stop
         style="stop-color:#ffffff;stop-opacity:1;"
         offset="0"
         id="stop10753" />
      <stop
         style="stop-color:#ffffff;stop-opacity:0;"
         offset="1"
         id="stop10755" />
    </linearGradient>
    <linearGradient
       id="linearGradient6963">
      <stop
         id="stop6965"
         offset="0"
         style="stop-color:#6d0000;stop-opacity:1;" />
      <stop
         id="stop6967"
         offset="1"
         style="stop-color:#ff6565;stop-opacity:1;" />
    </linearGradient>
    <linearGradient
       id="linearGradient4469">
      <stop
         id="stop4471"
         offset="0"
         style="stop-color:#610000;stop-opacity:1;" />
      <stop
         id="stop4473"
         offset="1"
         style="stop-color:#650000;stop-opacity:0;" />
    </linearGradient>
    <linearGradient
       id="linearGradient2827">
      <stop
         style="stop-color:white;stop-opacity:1;"
         offset="0"
         id="stop2829" />
      <stop
         style="stop-color:black;stop-opacity:0;"
         offset="1"
         id="stop2831" />
    </linearGradient>
    <linearGradient
       id="linearGradient3233">
      <stop
         style="stop-color:#ffffff;stop-opacity:0.95151514;"
         offset="0"
         id="stop3235" />
      <stop
         style="stop-color:#ffffff;stop-opacity:0.75757575;"
         offset="1"
         id="stop3237" />
    </linearGradient>
    <radialGradient
       inkscape:collect="always"
       xlink:href="#linearGradient3233"
       id="radialGradient3306"
       gradientUnits="userSpaceOnUse"
       gradientTransform="matrix(0.5068937,-7.2654667e-8,4.7720598e-8,0.3329348,-358.89384,-127.97872)"
       cx="891.9137"
       cy="466.54245"
       fx="891.9137"
       fy="466.54245"
       r="66.533768" />
    <linearGradient
       id="linearGradient2764">
      <stop
         style="stop-color:#7d0000;stop-opacity:1;"
         offset="0"
         id="stop2766" />
      <stop
         id="stop6460"
         offset="0.5"
         style="stop-color:#ffffff;stop-opacity:0.60000002;" />
      <stop
         style="stop-color:#650000;stop-opacity:0.20392157;"
         offset="1"
         id="stop2768" />
    </linearGradient>
    <linearGradient
       id="linearGradient5455">
      <stop
         id="stop5457"
         offset="0"
         style="stop-color:#000000;stop-opacity:0.18181819;" />
      <stop
         id="stop5459"
         offset="1"
         style="stop-color:#000000;stop-opacity:0.16363636;" />
    </linearGradient>
    <linearGradient
       id="linearGradient3550">
      <stop
         style="stop-color:#fbffff;stop-opacity:0.95757574;"
         offset="0"
         id="stop3552" />
      <stop
         style="stop-color:#ffffff;stop-opacity:0.72121215;"
         offset="1"
         id="stop3554" />
    </linearGradient>
    <linearGradient
       inkscape:collect="always"
       xlink:href="#linearGradient3550"
       id="linearGradient3300"
       gradientUnits="userSpaceOnUse"
       gradientTransform="matrix(0.2938184,0,0,0.2938184,47.618695,-86.442196)"
       x1="565.65393"
       y1="52.028114"
       x2="645.57361"
       y2="564.80005" />
    <radialGradient
       inkscape:collect="always"
       xlink:href="#linearGradient3268"
       id="radialGradient4309"
       gradientUnits="userSpaceOnUse"
       gradientTransform="matrix(1.0220136,1.0240208e-5,0,0.1755063,-353.69394,274.47168)"
       cx="512.62"
       cy="-755.21759"
       fx="512.62"
       fy="-755.21759"
       r="512" />
    <linearGradient
       id="linearGradient3268">
      <stop
         style="stop-color:#ad0006;stop-opacity:0.55686277;"
         offset="0"
         id="stop3270" />
      <stop
         style="stop-color:#9e0400;stop-opacity:0;"
         offset="1"
         id="stop3272" />
    </linearGradient>
    <radialGradient
       inkscape:collect="always"
       xlink:href="#linearGradient3268"
       id="radialGradient3276"
       cx="512.62"
       cy="-755.21759"
       fx="512.62"
       fy="-755.21759"
       r="512"
       gradientTransform="matrix(1.0220136,1.0240208e-5,0,0.1755063,-382.18522,512.25906)"
       gradientUnits="userSpaceOnUse" />
    <radialGradient
       inkscape:collect="always"
       xlink:href="#linearGradient3268"
       id="radialGradient2252"
       gradientUnits="userSpaceOnUse"
       gradientTransform="matrix(1.0220136,1.0240208e-5,0,0.1755063,-280.32388,839.53705)"
       cx="512.62"
       cy="-755.21759"
       fx="512.62"
       fy="-755.21759"
       r="512" />
    <radialGradient
       inkscape:collect="always"
       xlink:href="#linearGradient3268"
       id="radialGradient2263"
       gradientUnits="userSpaceOnUse"
       gradientTransform="matrix(3.4232012,3.4299243e-5,0,0.5878526,-24654.213,2014.6919)"
       cx="512.62"
       cy="-755.21759"
       fx="512.62"
       fy="-755.21759"
       r="512" />
    <linearGradient
       inkscape:collect="always"
       xlink:href="#linearGradient13843"
       id="linearGradient13853"
       x1="973.81055"
       y1="387.72672"
       x2="1018.8393"
       y2="387.72672"
       gradientUnits="userSpaceOnUse" />
    <linearGradient
       inkscape:collect="always"
       xlink:href="#linearGradient13843"
       id="linearGradient14923"
       x1="973.8125"
       y1="387.71875"
       x2="1018.8438"
       y2="387.71875"
       gradientUnits="userSpaceOnUse"
       gradientTransform="matrix(1.3658406,0,0,1.3658406,1106.1908,2.0299414)" />
    <linearGradient
       inkscape:collect="always"
       xlink:href="#linearGradient3550"
       id="linearGradient14939"
       gradientUnits="userSpaceOnUse"
       gradientTransform="matrix(0.2938184,0,0,0.2938184,47.618695,-86.442196)"
       x1="565.65393"
       y1="52.028114"
       x2="645.57361"
       y2="564.80005" />
    <radialGradient
       inkscape:collect="always"
       xlink:href="#linearGradient5455"
       id="radialGradient14941"
       gradientUnits="userSpaceOnUse"
       gradientTransform="matrix(2.928411,0,0,2.235288,-899.0274,-606.5392)"
       cx="465.29462"
       cy="503.70474"
       fx="465.29462"
       fy="503.70474"
       r="79.005089" />
    <radialGradient
       inkscape:collect="always"
       xlink:href="#linearGradient2764"
       id="radialGradient14943"
       gradientUnits="userSpaceOnUse"
       gradientTransform="matrix(1.634067,0,0,1.1373812,-293.91948,-49.990622)"
       cx="463.54642"
       cy="363.8826"
       fx="463.54642"
       fy="363.8826"
       r="86.104095" />
    <radialGradient
       inkscape:collect="always"
       xlink:href="#linearGradient3233"
       id="radialGradient14945"
       gradientUnits="userSpaceOnUse"
       gradientTransform="matrix(0.5068937,-7.2654667e-8,4.7720598e-8,0.3329348,-358.89384,-127.97872)"
       cx="891.9137"
       cy="466.54245"
       fx="891.9137"
       fy="466.54245"
       r="66.533768" />
    <radialGradient
       inkscape:collect="always"
       xlink:href="#linearGradient3233"
       id="radialGradient18862"
       gradientUnits="userSpaceOnUse"
       gradientTransform="matrix(1.6977433,-2.4334288e-7,1.5983099e-7,1.1151013,-1273.8119,-23.171109)"
       cx="891.9137"
       cy="466.54245"
       fx="891.9137"
       fy="466.54245"
       r="66.533768" />
    <linearGradient
       inkscape:collect="always"
       xlink:href="#linearGradient3550"
       id="linearGradient18867"
       gradientUnits="userSpaceOnUse"
       gradientTransform="matrix(0.9840884,0,0,0.9840884,88.235437,118.85838)"
       x1="565.65393"
       y1="52.028114"
       x2="645.57361"
       y2="564.80005" />
    <linearGradient
       inkscape:collect="always"
       xlink:href="#linearGradient4469"
       id="linearGradient18869"
       gradientUnits="userSpaceOnUse"
       x1="463.54642"
       y1="480.83444"
       x2="463.54642"
       y2="413.53998" />
    <radialGradient
       inkscape:collect="always"
       xlink:href="#linearGradient2827"
       id="radialGradient18871"
       gradientUnits="userSpaceOnUse"
       gradientTransform="matrix(2.928411,1.1129447e-6,-5.6022465e-7,1.4740787,-899.02713,-219.50059)"
       cx="465.29459"
       cy="508.45303"
       fx="465.29459"
       fy="508.45303"
       r="79.005089" />
    <linearGradient
       inkscape:collect="always"
       xlink:href="#linearGradient19849"
       id="linearGradient19855"
       x1="1029.1802"
       y1="657.88788"
       x2="761.19098"
       y2="657.88788"
       gradientUnits="userSpaceOnUse"
       gradientTransform="matrix(2.8807383,0,0,1.3552332,-439.4884,9.0084106)" />
    <radialGradient
       inkscape:collect="always"
       xlink:href="#linearGradient17872"
       id="radialGradient2242"
       gradientUnits="userSpaceOnUse"
       gradientTransform="matrix(0.7661844,-3.3296199e-4,1.0361223e-3,7.2005065e-2,241.51441,283.36282)"
       cx="514.09979"
       cy="-101.97731"
       fx="514.09979"
       fy="-101.97731"
       r="512" />
    <linearGradient
       inkscape:collect="always"
       xlink:href="#linearGradient3550"
       id="linearGradient5182"
       gradientUnits="userSpaceOnUse"
       gradientTransform="matrix(0.9840884,0,0,0.9840884,88.235437,118.85838)"
       x1="565.65393"
       y1="52.028114"
       x2="645.57361"
       y2="564.80005" />
    <radialGradient
       inkscape:collect="always"
       xlink:href="#linearGradient5455"
       id="radialGradient5184"
       gradientUnits="userSpaceOnUse"
       gradientTransform="matrix(2.928411,0,0,2.235288,-899.0274,-606.5392)"
       cx="465.29462"
       cy="503.70474"
       fx="465.29462"
       fy="503.70474"
       r="79.005089" />
    <radialGradient
       inkscape:collect="always"
       xlink:href="#linearGradient2764"
       id="radialGradient5186"
       gradientUnits="userSpaceOnUse"
       gradientTransform="matrix(1.634067,0,0,1.1373812,-293.91948,-49.990622)"
       cx="463.54642"
       cy="363.8826"
       fx="463.54642"
       fy="363.8826"
       r="86.104095" />
    <radialGradient
       inkscape:collect="always"
       xlink:href="#linearGradient3233"
       id="radialGradient5188"
       gradientUnits="userSpaceOnUse"
       gradientTransform="matrix(1.6977433,-2.4334288e-7,1.5983099e-7,1.1151013,-1273.8119,-23.171109)"
       cx="891.9137"
       cy="466.54245"
       fx="891.9137"
       fy="466.54245"
       r="66.533768" />
    <radialGradient
       inkscape:collect="always"
       xlink:href="#linearGradient2827"
       id="radialGradient5190"
       gradientUnits="userSpaceOnUse"
       gradientTransform="matrix(2.928411,1.1129447e-6,-5.6022465e-7,1.4740787,-899.02713,-219.50059)"
       cx="465.29459"
       cy="508.45303"
       fx="465.29459"
       fy="508.45303"
       r="79.005089" />
    <linearGradient
       inkscape:collect="always"
       xlink:href="#linearGradient4469"
       id="linearGradient5192"
       gradientUnits="userSpaceOnUse"
       x1="463.54642"
       y1="480.83444"
       x2="463.54642"
       y2="413.53998" />
    <linearGradient
       inkscape:collect="always"
       xlink:href="#linearGradient3550"
       id="linearGradient5208"
       gradientUnits="userSpaceOnUse"
       gradientTransform="matrix(0.9840884,0,0,0.9840884,88.235437,118.85838)"
       x1="565.65393"
       y1="52.028114"
       x2="645.57361"
       y2="564.80005" />
    <radialGradient
       inkscape:collect="always"
       xlink:href="#linearGradient3233"
       id="radialGradient5214"
       gradientUnits="userSpaceOnUse"
       gradientTransform="matrix(1.6977433,-2.4334288e-7,1.5983099e-7,1.1151013,-1273.8119,-23.171109)"
       cx="891.9137"
       cy="466.54245"
       fx="891.9137"
       fy="466.54245"
       r="66.533768" />
  </defs>
  <sodipodi:namedview
     id="base"
     pagecolor="#ffffff"
     bordercolor="#666666"
     borderopacity="1.0"
     inkscape:pageopacity="0.0"
     inkscape:pageshadow="2"
     inkscape:zoom="2.702811"
     inkscape:cx="198.19129"
     inkscape:cy="46.069087"
     inkscape:current-layer="g2459"
     inkscape:document-units="px"
     width="477px"
     height="130px"
     inkscape:window-width="1672"
     inkscape:window-height="953"
     inkscape:window-x="2"
     inkscape:window-y="31"
     showgrid="false" />
  <metadata
     id="metadata2229">
    <rdf:RDF>
      <cc:Work
         rdf:about="">
        <dc:format>image/svg+xml</dc:format>
        <dc:type
           rdf:resource="http://purl.org/dc/dcmitype/StillImage" />
      </cc:Work>
    </rdf:RDF>
  </metadata>
  <g
     id="layer1"
     inkscape:label="Layer 1"
     inkscape:groupmode="layer">
    <g
       id="g2459">
      <g
         id="g2598"
         transform="matrix(1.1344658,0,0,1.1344658,-6.19211,-5.7642148)">
        <path
           sodipodi:type="arc"
           style="opacity:0.5779468;fill:#000000;fill-opacity:1;stroke:#000000;stroke-width:15.71174049;stroke-linecap:round;stroke-linejoin:round;stroke-miterlimit:4;stroke-dasharray:none;stroke-opacity:1;filter:url(#filter26412)"
           id="path25210"
           sodipodi:cx="463.54642"
           sodipodi:cy="363.8826"
           sodipodi:rx="78.248222"
           sodipodi:ry="78.248222"
           d="M 541.79464,363.8826 A 78.248222,78.248222 0 1 1 385.29819,363.8826 A 78.248222,78.248222 0 1 1 541.79464,363.8826 z"
           transform="matrix(0.4378094,0,0,0.1984896,-138.19878,21.581261)" />
        <path
           sodipodi:type="arc"
           style="fill:#97141a;fill-opacity:1;stroke:none;stroke-width:15.71174049;stroke-linecap:round;stroke-linejoin:round;stroke-miterlimit:4;stroke-dasharray:none;stroke-opacity:1"
           id="path37550"
           sodipodi:cx="463.54642"
           sodipodi:cy="363.8826"
           sodipodi:rx="78.248222"
           sodipodi:ry="78.248222"
           d="M 541.79464,363.8826 A 78.248222,78.248222 0 1 1 385.29819,363.8826 A 78.248222,78.248222 0 1 1 541.79464,363.8826 z"
           transform="matrix(0.5763367,0,0,0.5763367,-203.83352,-149.97805)" />
        <path
           sodipodi:type="arc"
           style="fill:none;fill-opacity:1;stroke:#ffcc00;stroke-width:15.71174049;stroke-linecap:round;stroke-linejoin:round;stroke-miterlimit:4;stroke-dasharray:none;stroke-opacity:1"
           id="path3869"
           sodipodi:cx="463.54642"
           sodipodi:cy="363.8826"
           sodipodi:rx="78.248222"
           sodipodi:ry="78.248222"
           d="M 541.79464,363.8826 A 78.248222,78.248222 0 1 1 385.29819,363.8826 A 78.248222,78.248222 0 1 1 541.79464,363.8826 z"
           transform="matrix(0.5763367,0,0,0.5763367,-203.67333,-150.24466)" />
        <path
           style="font-size:6.14553833px;font-style:normal;font-weight:normal;fill:#f4fff5;fill-opacity:1;stroke:none;stroke-width:1px;stroke-linecap:butt;stroke-linejoin:miter;stroke-opacity:1;font-family:Bitstream Vera Sans"
           d="M 39.038517,77.66463 C 38.350208,76.878014 37.612744,76.066804 36.826124,75.230997 C 36.039488,74.346056 35.646174,73.485681 35.646181,72.649872 C 35.646174,72.109082 35.793667,71.568276 36.088659,71.02745 C 37.21943,70.683319 38.37479,70.511244 39.554742,70.511225 C 42.504587,70.511244 45.479024,71.519111 48.478062,73.534829 C 49.068014,73.878995 49.830059,74.518131 50.764202,75.452237 C 51.550808,75.894729 52.706168,76.509283 54.230285,77.295898 L 54.599017,77.295898 C 54.549827,77.394239 54.525245,77.492567 54.52527,77.590884 C 54.525245,77.738389 54.648156,77.836717 54.894003,77.885869 C 55.188962,77.935046 55.361037,77.98421 55.410228,78.033362 C 55.705187,78.033374 56.024755,77.861299 56.368932,77.517137 C 56.713054,77.173 57.00804,77.025507 57.253889,77.074659 C 57.647175,76.779686 57.843832,75.845565 57.84386,74.272294 C 58.040489,74.173981 58.138817,74.100234 58.138846,74.051054 C 58.138817,74.001906 58.065071,73.952742 57.917607,73.903561 C 57.81925,73.805249 57.770085,73.70692 57.770114,73.608576 C 57.770085,73.510263 57.794668,73.436517 57.84386,73.387336 C 57.843832,68.667585 57.868414,63.923235 57.917607,59.154272 C 58.015907,53.697072 58.655042,49.419782 59.835014,46.322391 C 60.129969,44.896672 60.941179,43.71673 62.268647,42.782562 C 62.514435,42.733445 62.760257,42.708863 63.006112,42.708815 C 64.087691,42.708863 65.021812,43.225087 65.808476,44.257491 C 65.906768,44.798343 66.250918,45.437478 66.840927,46.174898 C 67.08671,48.092348 67.480024,50.919292 68.02087,54.655739 L 68.02087,64.832749 C 67.824174,64.832774 67.750428,64.955684 67.79963,65.201481 C 67.799592,65.59482 67.799592,65.791477 67.79963,65.791452 C 67.848756,66.578105 67.750428,67.635136 67.504645,68.96255 C 67.701263,68.962571 67.799592,69.085481 67.79963,69.331282 C 67.799592,69.675452 67.799592,69.847527 67.79963,69.847507 C 67.602935,70.093348 67.504606,70.486662 67.504645,71.02745 C 67.553771,71.912425 67.553771,72.379486 67.504645,72.428633 C 67.701263,73.559428 69.05328,74.444384 71.560699,75.083505 C 73.576391,74.788534 75.788782,73.70692 78.197879,71.838661 C 81.246014,69.527959 83.28633,68.126778 84.318834,67.635114 C 85.793706,66.946836 87.391544,66.946836 89.112353,67.635114 C 89.161457,67.880957 89.186039,68.15136 89.186099,68.446325 C 89.186039,69.527959 88.743561,70.92914 87.858663,72.649872 C 86.432842,75.501415 84.466272,77.541732 81.958948,78.770827 C 81.565581,79.26248 80.97561,79.729541 80.189033,80.172009 C 79.402354,80.614497 78.664891,81.032393 77.97664,81.425699 C 76.944142,82.114007 74.363019,83.638098 70.233263,85.997978 C 68.70913,87.227088 67.799592,87.93997 67.504645,88.136625 C 66.422993,88.923255 65.292215,89.464062 64.112308,89.759047 C 63.37481,89.857376 62.661928,89.90654 61.973661,89.90654 C 59.072938,89.90654 56.221412,89.09533 53.419074,87.472907 C 52.091615,86.735446 49.756313,85.039279 46.413161,82.384403 C 43.512454,80.07369 41.054241,78.500435 39.038517,77.66463 M 29.23024,65.053988 L 31.073901,65.053988 C 31.172228,65.201506 31.516377,65.422745 32.106351,65.717706 C 32.696319,65.963551 32.991305,66.283119 32.991309,66.67641 C 34.564561,67.315568 35.719921,68.249689 36.457391,69.478775 C 36.260727,70.216259 35.523264,70.781648 34.244998,71.174943 C 32.032602,70.634155 30.361018,68.593839 29.23024,65.053988 M 89.923564,67.118889 C 90.316817,64.365713 92.357133,62.546636 96.044519,61.661652 C 97.17523,61.710844 97.617708,62.300815 97.371955,63.431566 C 97.17523,64.119892 96.659005,64.955684 95.823279,65.938945 C 94.151628,67.905539 92.283387,68.716749 90.21855,68.372578 L 89.923564,67.118889 M 61.752422,39.611465 C 61.752389,39.414858 61.629479,38.849469 61.38369,37.915296 C 61.236165,37.227049 61.211583,36.612496 61.309943,36.071635 C 61.359075,36.071689 61.432822,36.022525 61.531183,35.924142 C 61.432822,35.432554 61.481986,34.719672 61.678676,33.785495 C 61.924464,32.26146 62.047375,31.474832 62.047408,31.425609 C 62.194868,30.737368 62.637346,30.393219 63.374844,30.393159 C 63.718959,30.393219 63.964781,30.565293 64.112308,30.909384 C 64.30893,31.007772 64.382677,31.351921 64.333548,31.941834 C 64.333512,32.482699 64.505587,32.753102 64.849773,32.753045 C 65.292215,35.752122 65.243051,38.185752 64.70228,40.053943 C 64.456423,40.004829 64.333512,40.12774 64.333548,40.422676 C 64.333512,40.668546 64.259766,40.791457 64.112308,40.791408 C 63.37481,40.742293 62.883167,40.668546 62.637379,40.570168 C 62.096539,40.373561 61.801554,40.053993 61.752422,39.611465"
           id="text3875" />
      </g>
    </g>
  </g>
</svg>
